<svg xmlns="http://www.w3.org/2000/svg" width="72" height="20" viewBox="0 0 72 20">
  <path fill="#333333" fill-rule="evenodd" d="M65.595,45 L65.595,26.58 L70.425,26.58 L70.425,40.83 L78.675,40.83 L78.675,45 L65.595,45 Z M98.175,35.79 C98.175,41.28 94.485,45.3 89.145,45.3 C83.835,45.3 80.175,41.28 80.175,35.79 C80.175,30.27 83.835,26.28 89.145,26.28 C94.485,26.28 98.175,30.27 98.175,35.79 Z M93.315,35.79 C93.315,32.61 91.635,30.51 89.145,30.51 C86.655,30.51 85.035,32.61 85.035,35.79 C85.035,38.97 86.655,41.07 89.145,41.07 C91.635,41.07 93.315,38.97 93.315,35.79 Z M112.065,38.76 L109.215,38.76 L109.215,35.16 L116.835,35.16 L116.835,36.99 C116.835,42.09 113.475,45.3 108.585,45.3 C103.245,45.3 99.465,41.4 99.465,35.79 C99.465,30.18 103.245,26.28 108.525,26.28 C113.265,26.28 115.995,29.01 116.685,32.76 L111.765,32.76 C111.255,31.35 110.265,30.51 108.525,30.51 C105.855,30.51 104.325,32.73 104.325,35.79 C104.325,38.94 105.945,41.07 108.585,41.07 C110.415,41.07 111.615,40.17 112.065,38.76 Z M136.155,35.79 C136.155,41.28 132.465,45.3 127.125,45.3 C121.815,45.3 118.155,41.28 118.155,35.79 C118.155,30.27 121.815,26.28 127.125,26.28 C132.465,26.28 136.155,30.27 136.155,35.79 Z M131.295,35.79 C131.295,32.61 129.615,30.51 127.125,30.51 C124.635,30.51 123.015,32.61 123.015,35.79 C123.015,38.97 124.635,41.07 127.125,41.07 C129.615,41.07 131.295,38.97 131.295,35.79 Z" transform="translate(-65 -26)"/>
</svg>
