<svg width="16" height="245" viewBox="0 0 16 245" fill="none" xmlns="http://www.w3.org/2000/svg">
<path d="M11.9205 0.847272C11.9631 -0.316971 12.4907 3.69258 12.4952 4.30577C12.5349 9.77446 12.3647 15.067 12.0975 20.2669C11.4497 32.8746 10.3164 45.0273 9.85704 57.8102C9.04989 80.2694 14.4998 105.291 15.3785 128.484C16.1186 148.017 12.4061 164.428 9.30833 180.14C6.49065 194.431 2.81667 208.097 1.65529 224.173C1.32606 228.73 0.495602 238.871 5.58178 244.198C0.763199 239.401 0.891615 229.813 0.978713 225.131C1.2851 208.659 4.25012 194.399 6.32287 179.701C8.68348 162.961 11.2679 145.589 9.50981 125.11C8.11409 108.852 4.13813 92.1793 4.19908 76.667C4.30808 48.9283 10.9365 27.7074 11.9205 0.847272Z" fill="black"/>
</svg>
