<svg width="32" height="32" viewBox="0 0 32 32" fill="none" xmlns="http://www.w3.org/2000/svg">
<rect width="32" height="32" fill="none"/>
<path d="M4 16C1.33333 18.6667 1.33333 21.3333 4 24C5.09751 25.0975 5.74332 26.195 5.93743 27.2925C6.0926 28.1698 7.00017 28.9289 7.65764 28.3277C7.77176 28.2234 7.88588 28.1141 8 28C10.6667 25.3333 13.3333 25.3333 16 28C18.6667 30.6667 21.3333 30.6667 24 28C25.0975 26.9025 26.195 26.2567 27.2925 26.0626C28.1698 25.9074 28.9289 24.9998 28.3277 24.3424C28.2234 24.2282 28.1141 24.1141 28 24C25.3333 21.3333 25.3333 18.6667 28 16C30.6667 13.3333 30.6667 10.6667 28 8C26.9025 6.90249 26.2567 5.80499 26.0626 4.70748C25.9074 3.83019 24.9998 3.07109 24.3424 3.67229C24.2282 3.77665 24.1141 3.88588 24 4C21.3333 6.66667 18.6667 6.66667 16 4C13.3333 1.33333 10.6667 1.33333 8 4C6.90249 5.09751 5.80499 5.74332 4.70748 5.93743C3.83019 6.0926 3.07109 7.00017 3.67229 7.65764C3.77665 7.77176 3.88588 7.88588 4 8C6.66667 10.6667 6.66667 13.3333 4 16Z" stroke="black" stroke-width="2"/>
</svg>
