<svg width="16" height="6" viewBox="0 0 16 6" fill="none" xmlns="http://www.w3.org/2000/svg">
<g clip-path="url(#clip0_3:143)">
<path d="M-16 3C-13.3333 0.333333 -10.6667 0.333333 -8 3C-5.33333 5.66667 -2.66667 5.66667 0 3C2.66667 0.333333 5.33333 0.333333 8 3C10.6667 5.66667 13.3333 5.66667 16 3C18.6667 0.333333 21.3333 0.333333 24 3C26.6667 5.66667 29.3333 5.66667 32 3C34.6667 0.333333 37.3333 0.333333 40 3C42.6667 5.66667 45.3333 5.66667 48 3C50.6667 0.333333 53.3333 0.333333 56 3C58.6667 5.66667 61.3333 5.66667 64 3C66.6667 0.333333 69.3333 0.333333 72 3C74.6667 5.66667 77.3333 5.66667 80 3C82.6667 0.333333 85.3333 0.333333 88 3C90.6667 5.66667 93.3333 5.66667 96 3C98.6667 0.333333 101.333 0.333333 104 3C106.667 5.66667 109.333 5.66667 112 3C114.667 0.333333 117.333 0.333333 120 3C122.667 5.66667 125.333 5.66667 128 3C130.667 0.333333 133.333 0.333333 136 3C138.667 5.66667 141.333 5.66667 144 3C146.667 0.333333 149.333 0.333333 152 3C154.667 5.66667 157.333 5.66667 160 3C162.667 0.333333 165.333 0.333333 168 3C170.667 5.66667 173.333 5.66667 176 3C178.667 0.333333 181.333 0.333333 184 3C186.667 5.66667 189.333 5.66667 192 3C194.667 0.333333 197.333 0.333333 200 3C202.667 5.66667 205.333 5.66667 208 3C210.667 0.333333 213.333 0.333333 216 3C218.667 5.66667 221.333 5.66667 224 3" stroke="black" stroke-width="2"/>
</g>
<defs>
<clipPath id="clip0_3:143">
<rect width="16" height="6" fill="white"/>
</clipPath>
</defs>
</svg>
