<svg width="6" height="16" viewBox="0 0 6 16" fill="none" xmlns="http://www.w3.org/2000/svg">
<g clip-path="url(#clip0_20:19)">
<path d="M3 32C0.333334 29.3333 0.333334 26.6667 3 24C5.66667 21.3333 5.66667 18.6667 3 16C0.333333 13.3333 0.333333 10.6667 3 8C5.66667 5.33333 5.66667 2.66667 3 -8.74228e-08C0.333333 -2.66667 0.333333 -5.33333 3 -8C5.66667 -10.6667 5.66667 -13.3333 3 -16C0.333332 -18.6667 0.333332 -21.3333 3 -24C5.66667 -26.6667 5.66667 -29.3333 3 -32C0.333331 -34.6667 0.333331 -37.3333 3 -40C5.66666 -42.6667 5.66666 -45.3333 3 -48C0.333331 -50.6667 0.33333 -53.3333 3 -56C5.66666 -58.6667 5.66666 -61.3333 3 -64C0.33333 -66.6667 0.33333 -69.3333 3 -72C5.66666 -74.6667 5.66666 -77.3333 3 -80C0.333329 -82.6667 0.333329 -85.3333 3 -88C5.66666 -90.6667 5.66666 -93.3333 3 -96C0.333328 -98.6667 0.333328 -101.333 3 -104C5.66666 -106.667 5.66666 -109.333 2.99999 -112C0.333328 -114.667 0.333328 -117.333 2.99999 -120C5.66666 -122.667 5.66666 -125.333 2.99999 -128C0.333327 -130.667 0.333327 -133.333 2.99999 -136C5.66666 -138.667 5.66666 -141.333 2.99999 -144C0.333326 -146.667 0.333326 -149.333 2.99999 -152C5.66666 -154.667 5.66666 -157.333 2.99999 -160C0.333326 -162.667 0.333326 -165.333 2.99999 -168C5.66666 -170.667 5.66666 -173.333 2.99999 -176C0.333325 -178.667 0.333325 -181.333 2.99999 -184C5.66666 -186.667 5.66666 -189.333 2.99999 -192C0.333324 -194.667 0.333324 -197.333 2.99999 -200C5.66666 -202.667 5.66666 -205.333 2.99999 -208" stroke="black" stroke-width="2"/>
</g>
<defs>
<clipPath id="clip0_20:19">
<rect width="16" height="6" fill="white" transform="translate(4.76837e-07 16) rotate(-90)"/>
</clipPath>
</defs>
</svg>
